<svg width="60" height="60" viewBox="0 0 60 60" fill="none" xmlns="http://www.w3.org/2000/svg">
	<path d="M25.05 53.4L25.95 49.2C26.1 48.55 26.4125 48.0125 26.8875 47.5875C27.3625 47.1625 27.95 46.9 28.65 46.8L37.95 46.05C38.6 45.95 39.2 46.075 39.75 46.425C40.3 46.775 40.7 47.25 40.95 47.85L42.15 50.7C44.1 49.55 45.85 48.1625 47.4 46.5375C48.95 44.9125 50.25 43.1 51.3 41.1L50.4 40.65C49.85 40.25 49.45 39.7625 49.2 39.1875C48.95 38.6125 48.9 38 49.05 37.35L51.15 28.2C51.3 27.6 51.6125 27.1 52.0875 26.7C52.5625 26.3 53.1 26.05 53.7 25.95C53.45 24.7 53.1375 23.4875 52.7625 22.3125C52.3875 21.1375 51.9 20 51.3 18.9C50.85 19.15 50.3625 19.2625 49.8375 19.2375C49.3125 19.2125 48.85 19.05 48.45 18.75L40.5 13.95C39.95 13.6 39.55 13.125 39.3 12.525C39.05 11.925 39 11.3 39.15 10.65L39.75 8.1C38.2 7.4 36.6125 6.875 34.9875 6.525C33.3625 6.175 31.7 6 30 6C29.3 6 28.575 6.0375 27.825 6.1125C27.075 6.1875 26.35 6.3 25.65 6.45L27.9 11.55C28.15 12.15 28.2125 12.775 28.0875 13.425C27.9625 14.075 27.65 14.6 27.15 15L20.1 21.15C19.6 21.6 19.0125 21.85 18.3375 21.9C17.6625 21.95 17.05 21.8 16.5 21.45L9.6 17.25C8.45 19.15 7.5625 21.1875 6.9375 23.3625C6.3125 25.5375 6 27.75 6 30C6 30.8 6.1 32.1 6.3 33.9L12.9 33.3C13.6 33.2 14.2375 33.3125 14.8125 33.6375C15.3875 33.9625 15.8 34.45 16.05 35.1L19.65 43.65C19.9 44.25 19.9625 44.875 19.8375 45.525C19.7125 46.175 19.4 46.7 18.9 47.1L16.05 49.5C17.4 50.5 18.8375 51.325 20.3625 51.975C21.8875 52.625 23.45 53.1 25.05 53.4ZM30.45 40.5C29.8 40.6 29.2 40.475 28.65 40.125C28.1 39.775 27.7 39.3 27.45 38.7L23.4 29.4C23.15 28.8 23.1125 28.175 23.2875 27.525C23.4625 26.875 23.8 26.35 24.3 25.95L31.95 19.5C32.4 19.05 32.95 18.8 33.6 18.75C34.25 18.7 34.85 18.85 35.4 19.2L43.8 24.15C44.35 24.5 44.775 24.975 45.075 25.575C45.375 26.175 45.45 26.8 45.3 27.45L42.9 37.2C42.75 37.85 42.45 38.3875 42 38.8125C41.55 39.2375 41 39.5 40.35 39.6L30.45 40.5ZM30 60C25.85 60 21.95 59.2125 18.3 57.6375C14.65 56.0625 11.475 53.925 8.775 51.225C6.075 48.525 3.9375 45.35 2.3625 41.7C0.7875 38.05 0 34.15 0 30C0 25.85 0.7875 21.95 2.3625 18.3C3.9375 14.65 6.075 11.475 8.775 8.775C11.475 6.075 14.65 3.9375 18.3 2.3625C21.95 0.7875 25.85 0 30 0C34.15 0 38.05 0.7875 41.7 2.3625C45.35 3.9375 48.525 6.075 51.225 8.775C53.925 11.475 56.0625 14.65 57.6375 18.3C59.2125 21.95 60 25.85 60 30C60 34.15 59.2125 38.05 57.6375 41.7C56.0625 45.35 53.925 48.525 51.225 51.225C48.525 53.925 45.35 56.0625 41.7 57.6375C38.05 59.2125 34.15 60 30 60Z"
	      fill="#0033D9"/>
</svg>
